solid cup
  facet normal 0.0 0.0 0.0
    outer loop
      vertex 1.000000 0.000000 1.000000
      vertex 0.984808 0.173648 1.000000
      vertex 0.984808 0.173648 0.000000
    endloop
  endfacet
  facet normal 0.0 0.0 0.0
    outer loop
      vertex 1.000000 0.000000 1.000000
      vertex 0.984808 0.173648 0.000000
      vertex 1.000000 0.000000 0.000000
    endloop
  endfacet
  facet normal 0.0 0.0 0.0
    outer loop
      vertex 0.984808 0.173648 1.000000
      vertex 0.939693 0.342020 1.000000
      vertex 0.939693 0.342020 0.000000
    endloop
  endfacet
  facet normal 0.0 0.0 0.0
    outer loop
      vertex 0.984808 0.173648 1.000000
      vertex 0.939693 0.342020 0.000000
      vertex 0.984808 0.173648 0.000000
    endloop
  endfacet
  facet normal 0.0 0.0 0.0
    outer loop
      vertex 0.939693 0.342020 1.000000
      vertex 0.866025 0.500000 1.000000
      vertex 0.866025 0.500000 0.000000
    endloop
  endfacet
  facet normal 0.0 0.0 0.0
    outer loop
      vertex 0.939693 0.342020 1.000000
      vertex 0.866025 0.500000 0.000000
      vertex 0.939693 0.342020 0.000000
    endloop
  endfacet
  facet normal 0.0 0.0 0.0
    outer loop
      vertex 0.866025 0.500000 1.000000
      vertex 0.766044 0.642788 1.000000
      vertex 0.766044 0.642788 0.000000
    endloop
  endfacet
  facet normal 0.0 0.0 0.0
    outer loop
      vertex 0.866025 0.500000 1.000000
      vertex 0.766044 0.642788 0.000000
      vertex 0.866025 0.500000 0.000000
    endloop
  endfacet
  facet normal 0.0 0.0 0.0
    outer loop
      vertex 0.766044 0.642788 1.000000
      vertex 0.642788 0.766044 1.000000
      vertex 0.642788 0.766044 0.000000
    endloop
  endfacet
  facet normal 0.0 0.0 0.0
    outer loop
      vertex 0.766044 0.642788 1.000000
      vertex 0.642788 0.766044 0.000000
      vertex 0.766044 0.642788 0.000000
    endloop
  endfacet
  facet normal 0.0 0.0 0.0
    outer loop
      vertex 0.642788 0.766044 1.000000
      vertex 0.500000 0.866025 1.000000
      vertex 0.500000 0.866025 0.000000
    endloop
  endfacet
  facet normal 0.0 0.0 0.0
    outer loop
      vertex 0.642788 0.766044 1.000000
      vertex 0.500000 0.866025 0.000000
      vertex 0.642788 0.766044 0.000000
    endloop
  endfacet
  facet normal 0.0 0.0 0.0
    outer loop
      vertex 0.500000 0.866025 1.000000
      vertex 0.342020 0.939693 1.000000
      vertex 0.342020 0.939693 0.000000
    endloop
  endfacet
  facet normal 0.0 0.0 0.0
    outer loop
      vertex 0.500000 0.866025 1.000000
      vertex 0.342020 0.939693 0.000000
      vertex 0.500000 0.866025 0.000000
    endloop
  endfacet
  facet normal 0.0 0.0 0.0
    outer loop
      vertex 0.342020 0.939693 1.000000
      vertex 0.173648 0.984808 1.000000
      vertex 0.173648 0.984808 0.000000
    endloop
  endfacet
  facet normal 0.0 0.0 0.0
    outer loop
      vertex 0.342020 0.939693 1.000000
      vertex 0.173648 0.984808 0.000000
      vertex 0.342020 0.939693 0.000000
    endloop
  endfacet
  facet normal 0.0 0.0 0.0
    outer loop
      vertex 0.173648 0.984808 1.000000
      vertex -0.000000 1.000000 1.000000
      vertex -0.000000 1.000000 0.000000
    endloop
  endfacet
  facet normal 0.0 0.0 0.0
    outer loop
      vertex 0.173648 0.984808 1.000000
      vertex -0.000000 1.000000 0.000000
      vertex 0.173648 0.984808 0.000000
    endloop
  endfacet
  facet normal 0.0 0.0 0.0
    outer loop
      vertex -0.000000 1.000000 1.000000
      vertex -0.173648 0.984808 1.000000
      vertex -0.173648 0.984808 0.000000
    endloop
  endfacet
  facet normal 0.0 0.0 0.0
    outer loop
      vertex -0.000000 1.000000 1.000000
      vertex -0.173648 0.984808 0.000000
      vertex -0.000000 1.000000 0.000000
    endloop
  endfacet
  facet normal 0.0 0.0 0.0
    outer loop
      vertex -0.173648 0.984808 1.000000
      vertex -0.342020 0.939693 1.000000
      vertex -0.342020 0.939693 0.000000
    endloop
  endfacet
  facet normal 0.0 0.0 0.0
    outer loop
      vertex -0.173648 0.984808 1.000000
      vertex -0.342020 0.939693 0.000000
      vertex -0.173648 0.984808 0.000000
    endloop
  endfacet
  facet normal 0.0 0.0 0.0
    outer loop
      vertex -0.342020 0.939693 1.000000
      vertex -0.500000 0.866025 1.000000
      vertex -0.500000 0.866025 0.000000
    endloop
  endfacet
  facet normal 0.0 0.0 0.0
    outer loop
      vertex -0.342020 0.939693 1.000000
      vertex -0.500000 0.866025 0.000000
      vertex -0.342020 0.939693 0.000000
    endloop
  endfacet
  facet normal 0.0 0.0 0.0
    outer loop
      vertex -0.500000 0.866025 1.000000
      vertex -0.642788 0.766044 1.000000
      vertex -0.642788 0.766044 0.000000
    endloop
  endfacet
  facet normal 0.0 0.0 0.0
    outer loop
      vertex -0.500000 0.866025 1.000000
      vertex -0.642788 0.766044 0.000000
      vertex -0.500000 0.866025 0.000000
    endloop
  endfacet
  facet normal 0.0 0.0 0.0
    outer loop
      vertex -0.642788 0.766044 1.000000
      vertex -0.766044 0.642788 1.000000
      vertex -0.766044 0.642788 0.000000
    endloop
  endfacet
  facet normal 0.0 0.0 0.0
    outer loop
      vertex -0.642788 0.766044 1.000000
      vertex -0.766044 0.642788 0.000000
      vertex -0.642788 0.766044 0.000000
    endloop
  endfacet
  facet normal 0.0 0.0 0.0
    outer loop
      vertex -0.766044 0.642788 1.000000
      vertex -0.866025 0.500000 1.000000
      vertex -0.866025 0.500000 0.000000
    endloop
  endfacet
  facet normal 0.0 0.0 0.0
    outer loop
      vertex -0.766044 0.642788 1.000000
      vertex -0.866025 0.500000 0.000000
      vertex -0.766044 0.642788 0.000000
    endloop
  endfacet
  facet normal 0.0 0.0 0.0
    outer loop
      vertex -0.866025 0.500000 1.000000
      vertex -0.939693 0.342020 1.000000
      vertex -0.939693 0.342020 0.000000
    endloop
  endfacet
  facet normal 0.0 0.0 0.0
    outer loop
      vertex -0.866025 0.500000 1.000000
      vertex -0.939693 0.342020 0.000000
      vertex -0.866025 0.500000 0.000000
    endloop
  endfacet
  facet normal 0.0 0.0 0.0
    outer loop
      vertex -0.939693 0.342020 1.000000
      vertex -0.984808 0.173648 1.000000
      vertex -0.984808 0.173648 0.000000
    endloop
  endfacet
  facet normal 0.0 0.0 0.0
    outer loop
      vertex -0.939693 0.342020 1.000000
      vertex -0.984808 0.173648 0.000000
      vertex -0.939693 0.342020 0.000000
    endloop
  endfacet
  facet normal 0.0 0.0 0.0
    outer loop
      vertex -0.984808 0.173648 1.000000
      vertex -1.000000 -0.000000 1.000000
      vertex -1.000000 -0.000000 0.000000
    endloop
  endfacet
  facet normal 0.0 0.0 0.0
    outer loop
      vertex -0.984808 0.173648 1.000000
      vertex -1.000000 -0.000000 0.000000
      vertex -0.984808 0.173648 0.000000
    endloop
  endfacet
  facet normal 0.0 0.0 0.0
    outer loop
      vertex -1.000000 -0.000000 1.000000
      vertex -0.984808 -0.173648 1.000000
      vertex -0.984808 -0.173648 0.000000
    endloop
  endfacet
  facet normal 0.0 0.0 0.0
    outer loop
      vertex -1.000000 -0.000000 1.000000
      vertex -0.984808 -0.173648 0.000000
      vertex -1.000000 -0.000000 0.000000
    endloop
  endfacet
  facet normal 0.0 0.0 0.0
    outer loop
      vertex -0.984808 -0.173648 1.000000
      vertex -0.939693 -0.342020 1.000000
      vertex -0.939693 -0.342020 0.000000
    endloop
  endfacet
  facet normal 0.0 0.0 0.0
    outer loop
      vertex -0.984808 -0.173648 1.000000
      vertex -0.939693 -0.342020 0.000000
      vertex -0.984808 -0.173648 0.000000
    endloop
  endfacet
  facet normal 0.0 0.0 0.0
    outer loop
      vertex -0.939693 -0.342020 1.000000
      vertex -0.866025 -0.500000 1.000000
      vertex -0.866025 -0.500000 0.000000
    endloop
  endfacet
  facet normal 0.0 0.0 0.0
    outer loop
      vertex -0.939693 -0.342020 1.000000
      vertex -0.866025 -0.500000 0.000000
      vertex -0.939693 -0.342020 0.000000
    endloop
  endfacet
  facet normal 0.0 0.0 0.0
    outer loop
      vertex -0.866025 -0.500000 1.000000
      vertex -0.766044 -0.642788 1.000000
      vertex -0.766044 -0.642788 0.000000
    endloop
  endfacet
  facet normal 0.0 0.0 0.0
    outer loop
      vertex -0.866025 -0.500000 1.000000
      vertex -0.766044 -0.642788 0.000000
      vertex -0.866025 -0.500000 0.000000
    endloop
  endfacet
  facet normal 0.0 0.0 0.0
    outer loop
      vertex -0.766044 -0.642788 1.000000
      vertex -0.642788 -0.766045 1.000000
      vertex -0.642788 -0.766045 0.000000
    endloop
  endfacet
  facet normal 0.0 0.0 0.0
    outer loop
      vertex -0.766044 -0.642788 1.000000
      vertex -0.642788 -0.766045 0.000000
      vertex -0.766044 -0.642788 0.000000
    endloop
  endfacet
  facet normal 0.0 0.0 0.0
    outer loop
      vertex -0.642788 -0.766045 1.000000
      vertex -0.500000 -0.866025 1.000000
      vertex -0.500000 -0.866025 0.000000
    endloop
  endfacet
  facet normal 0.0 0.0 0.0
    outer loop
      vertex -0.642788 -0.766045 1.000000
      vertex -0.500000 -0.866025 0.000000
      vertex -0.642788 -0.766045 0.000000
    endloop
  endfacet
  facet normal 0.0 0.0 0.0
    outer loop
      vertex -0.500000 -0.866025 1.000000
      vertex -0.342020 -0.939693 1.000000
      vertex -0.342020 -0.939693 0.000000
    endloop
  endfacet
  facet normal 0.0 0.0 0.0
    outer loop
      vertex -0.500000 -0.866025 1.000000
      vertex -0.342020 -0.939693 0.000000
      vertex -0.500000 -0.866025 0.000000
    endloop
  endfacet
  facet normal 0.0 0.0 0.0
    outer loop
      vertex -0.342020 -0.939693 1.000000
      vertex -0.173648 -0.984808 1.000000
      vertex -0.173648 -0.984808 0.000000
    endloop
  endfacet
  facet normal 0.0 0.0 0.0
    outer loop
      vertex -0.342020 -0.939693 1.000000
      vertex -0.173648 -0.984808 0.000000
      vertex -0.342020 -0.939693 0.000000
    endloop
  endfacet
  facet normal 0.0 0.0 0.0
    outer loop
      vertex -0.173648 -0.984808 1.000000
      vertex 0.000000 -1.000000 1.000000
      vertex 0.000000 -1.000000 0.000000
    endloop
  endfacet
  facet normal 0.0 0.0 0.0
    outer loop
      vertex -0.173648 -0.984808 1.000000
      vertex 0.000000 -1.000000 0.000000
      vertex -0.173648 -0.984808 0.000000
    endloop
  endfacet
  facet normal 0.0 0.0 0.0
    outer loop
      vertex 0.000000 -1.000000 1.000000
      vertex 0.173648 -0.984808 1.000000
      vertex 0.173648 -0.984808 0.000000
    endloop
  endfacet
  facet normal 0.0 0.0 0.0
    outer loop
      vertex 0.000000 -1.000000 1.000000
      vertex 0.173648 -0.984808 0.000000
      vertex 0.000000 -1.000000 0.000000
    endloop
  endfacet
  facet normal 0.0 0.0 0.0
    outer loop
      vertex 0.173648 -0.984808 1.000000
      vertex 0.342020 -0.939693 1.000000
      vertex 0.342020 -0.939693 0.000000
    endloop
  endfacet
  facet normal 0.0 0.0 0.0
    outer loop
      vertex 0.173648 -0.984808 1.000000
      vertex 0.342020 -0.939693 0.000000
      vertex 0.173648 -0.984808 0.000000
    endloop
  endfacet
  facet normal 0.0 0.0 0.0
    outer loop
      vertex 0.342020 -0.939693 1.000000
      vertex 0.500000 -0.866025 1.000000
      vertex 0.500000 -0.866025 0.000000
    endloop
  endfacet
  facet normal 0.0 0.0 0.0
    outer loop
      vertex 0.342020 -0.939693 1.000000
      vertex 0.500000 -0.866025 0.000000
      vertex 0.342020 -0.939693 0.000000
    endloop
  endfacet
  facet normal 0.0 0.0 0.0
    outer loop
      vertex 0.500000 -0.866025 1.000000
      vertex 0.642788 -0.766044 1.000000
      vertex 0.642788 -0.766044 0.000000
    endloop
  endfacet
  facet normal 0.0 0.0 0.0
    outer loop
      vertex 0.500000 -0.866025 1.000000
      vertex 0.642788 -0.766044 0.000000
      vertex 0.500000 -0.866025 0.000000
    endloop
  endfacet
  facet normal 0.0 0.0 0.0
    outer loop
      vertex 0.642788 -0.766044 1.000000
      vertex 0.766044 -0.642788 1.000000
      vertex 0.766044 -0.642788 0.000000
    endloop
  endfacet
  facet normal 0.0 0.0 0.0
    outer loop
      vertex 0.642788 -0.766044 1.000000
      vertex 0.766044 -0.642788 0.000000
      vertex 0.642788 -0.766044 0.000000
    endloop
  endfacet
  facet normal 0.0 0.0 0.0
    outer loop
      vertex 0.766044 -0.642788 1.000000
      vertex 0.866025 -0.500000 1.000000
      vertex 0.866025 -0.500000 0.000000
    endloop
  endfacet
  facet normal 0.0 0.0 0.0
    outer loop
      vertex 0.766044 -0.642788 1.000000
      vertex 0.866025 -0.500000 0.000000
      vertex 0.766044 -0.642788 0.000000
    endloop
  endfacet
  facet normal 0.0 0.0 0.0
    outer loop
      vertex 0.866025 -0.500000 1.000000
      vertex 0.939693 -0.342020 1.000000
      vertex 0.939693 -0.342020 0.000000
    endloop
  endfacet
  facet normal 0.0 0.0 0.0
    outer loop
      vertex 0.866025 -0.500000 1.000000
      vertex 0.939693 -0.342020 0.000000
      vertex 0.866025 -0.500000 0.000000
    endloop
  endfacet
  facet normal 0.0 0.0 0.0
    outer loop
      vertex 0.939693 -0.342020 1.000000
      vertex 0.984808 -0.173648 1.000000
      vertex 0.984808 -0.173648 0.000000
    endloop
  endfacet
  facet normal 0.0 0.0 0.0
    outer loop
      vertex 0.939693 -0.342020 1.000000
      vertex 0.984808 -0.173648 0.000000
      vertex 0.939693 -0.342020 0.000000
    endloop
  endfacet
  facet normal 0.0 0.0 0.0
    outer loop
      vertex 0.984808 -0.173648 1.000000
      vertex 1.000000 0.000000 1.000000
      vertex 1.000000 0.000000 0.000000
    endloop
  endfacet
  facet normal 0.0 0.0 0.0
    outer loop
      vertex 0.984808 -0.173648 1.000000
      vertex 1.000000 0.000000 0.000000
      vertex 0.984808 -0.173648 0.000000
    endloop
  endfacet
  facet normal 0.0 0.0 0.0
    outer loop
      vertex 0.000000 0.000000 0.000000
      vertex 0.984808 0.173648 0.000000
      vertex 1.000000 0.000000 0.000000
    endloop
  endfacet
  facet normal 0.0 0.0 0.0
    outer loop
      vertex 0.000000 0.000000 0.000000
      vertex 0.939693 0.342020 0.000000
      vertex 0.984808 0.173648 0.000000
    endloop
  endfacet
  facet normal 0.0 0.0 0.0
    outer loop
      vertex 0.000000 0.000000 0.000000
      vertex 0.866025 0.500000 0.000000
      vertex 0.939693 0.342020 0.000000
    endloop
  endfacet
  facet normal 0.0 0.0 0.0
    outer loop
      vertex 0.000000 0.000000 0.000000
      vertex 0.766044 0.642788 0.000000
      vertex 0.866025 0.500000 0.000000
    endloop
  endfacet
  facet normal 0.0 0.0 0.0
    outer loop
      vertex 0.000000 0.000000 0.000000
      vertex 0.642788 0.766044 0.000000
      vertex 0.766044 0.642788 0.000000
    endloop
  endfacet
  facet normal 0.0 0.0 0.0
    outer loop
      vertex 0.000000 0.000000 0.000000
      vertex 0.500000 0.866025 0.000000
      vertex 0.642788 0.766044 0.000000
    endloop
  endfacet
  facet normal 0.0 0.0 0.0
    outer loop
      vertex 0.000000 0.000000 0.000000
      vertex 0.342020 0.939693 0.000000
      vertex 0.500000 0.866025 0.000000
    endloop
  endfacet
  facet normal 0.0 0.0 0.0
    outer loop
      vertex 0.000000 0.000000 0.000000
      vertex 0.173648 0.984808 0.000000
      vertex 0.342020 0.939693 0.000000
    endloop
  endfacet
  facet normal 0.0 0.0 0.0
    outer loop
      vertex 0.000000 0.000000 0.000000
      vertex -0.000000 1.000000 0.000000
      vertex 0.173648 0.984808 0.000000
    endloop
  endfacet
  facet normal 0.0 0.0 0.0
    outer loop
      vertex 0.000000 0.000000 0.000000
      vertex -0.173648 0.984808 0.000000
      vertex -0.000000 1.000000 0.000000
    endloop
  endfacet
  facet normal 0.0 0.0 0.0
    outer loop
      vertex 0.000000 0.000000 0.000000
      vertex -0.342020 0.939693 0.000000
      vertex -0.173648 0.984808 0.000000
    endloop
  endfacet
  facet normal 0.0 0.0 0.0
    outer loop
      vertex 0.000000 0.000000 0.000000
      vertex -0.500000 0.866025 0.000000
      vertex -0.342020 0.939693 0.000000
    endloop
  endfacet
  facet normal 0.0 0.0 0.0
    outer loop
      vertex 0.000000 0.000000 0.000000
      vertex -0.642788 0.766044 0.000000
      vertex -0.500000 0.866025 0.000000
    endloop
  endfacet
  facet normal 0.0 0.0 0.0
    outer loop
      vertex 0.000000 0.000000 0.000000
      vertex -0.766044 0.642788 0.000000
      vertex -0.642788 0.766044 0.000000
    endloop
  endfacet
  facet normal 0.0 0.0 0.0
    outer loop
      vertex 0.000000 0.000000 0.000000
      vertex -0.866025 0.500000 0.000000
      vertex -0.766044 0.642788 0.000000
    endloop
  endfacet
  facet normal 0.0 0.0 0.0
    outer loop
      vertex 0.000000 0.000000 0.000000
      vertex -0.939693 0.342020 0.000000
      vertex -0.866025 0.500000 0.000000
    endloop
  endfacet
  facet normal 0.0 0.0 0.0
    outer loop
      vertex 0.000000 0.000000 0.000000
      vertex -0.984808 0.173648 0.000000
      vertex -0.939693 0.342020 0.000000
    endloop
  endfacet
  facet normal 0.0 0.0 0.0
    outer loop
      vertex 0.000000 0.000000 0.000000
      vertex -1.000000 -0.000000 0.000000
      vertex -0.984808 0.173648 0.000000
    endloop
  endfacet
  facet normal 0.0 0.0 0.0
    outer loop
      vertex 0.000000 0.000000 0.000000
      vertex -0.984808 -0.173648 0.000000
      vertex -1.000000 -0.000000 0.000000
    endloop
  endfacet
  facet normal 0.0 0.0 0.0
    outer loop
      vertex 0.000000 0.000000 0.000000
      vertex -0.939693 -0.342020 0.000000
      vertex -0.984808 -0.173648 0.000000
    endloop
  endfacet
  facet normal 0.0 0.0 0.0
    outer loop
      vertex 0.000000 0.000000 0.000000
      vertex -0.866025 -0.500000 0.000000
      vertex -0.939693 -0.342020 0.000000
    endloop
  endfacet
  facet normal 0.0 0.0 0.0
    outer loop
      vertex 0.000000 0.000000 0.000000
      vertex -0.766044 -0.642788 0.000000
      vertex -0.866025 -0.500000 0.000000
    endloop
  endfacet
  facet normal 0.0 0.0 0.0
    outer loop
      vertex 0.000000 0.000000 0.000000
      vertex -0.642788 -0.766045 0.000000
      vertex -0.766044 -0.642788 0.000000
    endloop
  endfacet
  facet normal 0.0 0.0 0.0
    outer loop
      vertex 0.000000 0.000000 0.000000
      vertex -0.500000 -0.866025 0.000000
      vertex -0.642788 -0.766045 0.000000
    endloop
  endfacet
  facet normal 0.0 0.0 0.0
    outer loop
      vertex 0.000000 0.000000 0.000000
      vertex -0.342020 -0.939693 0.000000
      vertex -0.500000 -0.866025 0.000000
    endloop
  endfacet
  facet normal 0.0 0.0 0.0
    outer loop
      vertex 0.000000 0.000000 0.000000
      vertex -0.173648 -0.984808 0.000000
      vertex -0.342020 -0.939693 0.000000
    endloop
  endfacet
  facet normal 0.0 0.0 0.0
    outer loop
      vertex 0.000000 0.000000 0.000000
      vertex 0.000000 -1.000000 0.000000
      vertex -0.173648 -0.984808 0.000000
    endloop
  endfacet
  facet normal 0.0 0.0 0.0
    outer loop
      vertex 0.000000 0.000000 0.000000
      vertex 0.173648 -0.984808 0.000000
      vertex 0.000000 -1.000000 0.000000
    endloop
  endfacet
  facet normal 0.0 0.0 0.0
    outer loop
      vertex 0.000000 0.000000 0.000000
      vertex 0.342020 -0.939693 0.000000
      vertex 0.173648 -0.984808 0.000000
    endloop
  endfacet
  facet normal 0.0 0.0 0.0
    outer loop
      vertex 0.000000 0.000000 0.000000
      vertex 0.500000 -0.866025 0.000000
      vertex 0.342020 -0.939693 0.000000
    endloop
  endfacet
  facet normal 0.0 0.0 0.0
    outer loop
      vertex 0.000000 0.000000 0.000000
      vertex 0.642788 -0.766044 0.000000
      vertex 0.500000 -0.866025 0.000000
    endloop
  endfacet
  facet normal 0.0 0.0 0.0
    outer loop
      vertex 0.000000 0.000000 0.000000
      vertex 0.766044 -0.642788 0.000000
      vertex 0.642788 -0.766044 0.000000
    endloop
  endfacet
  facet normal 0.0 0.0 0.0
    outer loop
      vertex 0.000000 0.000000 0.000000
      vertex 0.866025 -0.500000 0.000000
      vertex 0.766044 -0.642788 0.000000
    endloop
  endfacet
  facet normal 0.0 0.0 0.0
    outer loop
      vertex 0.000000 0.000000 0.000000
      vertex 0.939693 -0.342020 0.000000
      vertex 0.866025 -0.500000 0.000000
    endloop
  endfacet
  facet normal 0.0 0.0 0.0
    outer loop
      vertex 0.000000 0.000000 0.000000
      vertex 0.984808 -0.173648 0.000000
      vertex 0.939693 -0.342020 0.000000
    endloop
  endfacet
  facet normal 0.0 0.0 0.0
    outer loop
      vertex 0.000000 0.000000 0.000000
      vertex 1.000000 0.000000 0.000000
      vertex 0.984808 -0.173648 0.000000
    endloop
  endfacet
endsolid cup
