solid pointcloud
facet normal -0.859828564860072 -0.1360188304046594 -0.4921318083867548
  outer loop
    vertex -0.7365915775299072 0.8078452348709106 4.593106269836426
    vertex -1.1389765739440918 0.7903445959091187 5.300970554351807
    vertex -1.0473706722259521 2.568979501724243 4.649329662322998
  endloop
endfacet
facet normal 0.6417578383272922 -0.29274904664350637 -0.7088334590260248
  outer loop
    vertex -1.348149299621582 1.482787847518921 4.825611591339111
    vertex -1.0473706722259521 2.568979501724243 4.649329662322998
    vertex -1.1389765739440918 0.7903445959091187 5.300970554351807
  endloop
endfacet
facet normal -0.8343829430959271 -0.46024794990018564 -0.3032769837677351
  outer loop
    vertex -1.348149299621582 1.482787847518921 4.825611591339111
    vertex -1.1389765739440918 0.7903445959091187 5.300970554351807
    vertex -1.8283365964889526 1.6760478019714355 5.853426456451416
  endloop
endfacet
facet normal 0.8293979774427925 0.40651300741376056 0.3832051275977725
  outer loop
    vertex -1.7015612125396729 1.84597647190094 5.398773193359375
    vertex -1.8283365964889526 1.6760478019714355 5.853426456451416
    vertex -1.1389765739440918 0.7903445959091187 5.300970554351807
  endloop
endfacet
facet normal 0.27032109799452975 0.33869934738629226 -0.901226528714691
  outer loop
    vertex -1.2348530292510986 1.0838170051574707 4.710223197937012
    vertex -1.3483976125717163 1.482886552810669 4.826144218444824
    vertex -0.5447993874549866 0.7535611987113953 4.793086528778076
  endloop
endfacet
facet normal -0.912601376075481 0.3822557034592481 0.14504932112220878
  outer loop
    vertex -2.7618749141693115 -3.9329214096069336 10.203215599060059
    vertex -1.3249460458755493 1.0545653104782104 6.100114822387695
    vertex -1.348149299621582 1.482787847518921 4.825611591339111
  endloop
endfacet
facet normal 0.9059180166004354 0.15486364747012557 0.39411901488126916
  outer loop
    vertex -2.7618749141693115 -3.9329214096069336 10.203215599060059
    vertex -1.348149299621582 1.482787847518921 4.825611591339111
    vertex -1.8283365964889526 1.6760478019714355 5.853426456451416
  endloop
endfacet
facet normal -0.9543411755629162 -0.06693098181522822 -0.29112396723464834
  outer loop
    vertex -2.7618749141693115 -3.9329214096069336 10.203215599060059
    vertex -1.8283365964889526 1.6760478019714355 5.853426456451416
    vertex -1.7015612125396729 1.84597647190094 5.398773193359375
  endloop
endfacet
facet normal 0.9722768437258253 -0.22346003919809881 0.06887198295483705
  outer loop
    vertex -2.7618749141693115 -3.9329214096069336 10.203215599060059
    vertex -1.296932578086853 0.7892800569534302 4.843907356262207
    vertex -1.3249460458755493 1.0545653104782104 6.100114822387695
  endloop
endfacet
facet normal 0.900434189896362 0.12620558052820813 0.4162816607889665
  outer loop
    vertex -3.053389310836792 -3.9784488677978516 10.088644027709961
    vertex -1.296932578086853 0.7892800569534302 4.843907356262207
    vertex -1.7015612125396729 1.84597647190094 5.398773193359375
  endloop
endfacet
facet normal -0.7194193669209302 -0.326611916814204 -0.6129930099879112
  outer loop
    vertex -3.053389310836792 -3.9784488677978516 10.088644027709961
    vertex -1.7015612125396729 1.84597647190094 5.398773193359375
    vertex -1.1389765739440918 0.7903445959091187 5.300970554351807
  endloop
endfacet
facet normal -0.9177083977963933 -0.09423211561537426 -0.38591657777378174
  outer loop
    vertex -1.1833418607711792 1.0469337701797485 4.5400919914245605
    vertex -2.8992393016815186 -3.749786138534546 9.791741371154785
    vertex -1.3483976125717163 1.482886552810669 4.826144218444824
  endloop
endfacet
facet normal 0.9490683728524097 0.19910050331430576 0.24418888842711373
  outer loop
    vertex -1.1833418607711792 1.0469337701797485 4.5400919914245605
    vertex -1.3483976125717163 1.482886552810669 4.826144218444824
    vertex -1.2348530292510986 1.0838170051574707 4.710223197937012
  endloop
endfacet
facet normal 0.4369348600297175 0.8973369488257544 -0.0622441030371271
  outer loop
    vertex -1.1833418607711792 1.0469337701797485 4.5400919914245605
    vertex -1.2348530292510986 1.0838170051574707 4.710223197937012
    vertex -0.5447993874549866 0.7535611987113953 4.793086528778076
  endloop
endfacet
facet normal 0.9547760932759645 -8.241024627044867E-4 0.2973246248863649
  outer loop
    vertex -1.401661992073059 0.8860920667648315 4.9955339431762695
    vertex -1.3483976125717163 1.482886552810669 4.826144218444824
    vertex -2.8992393016815186 -3.749786138534546 9.791741371154785
  endloop
endfacet
facet normal -0.9378592975952982 0.3446669977759509 0.04030630916080545
  outer loop
    vertex -1.401661992073059 0.8860920667648315 4.9955339431762695
    vertex -2.8992393016815186 -3.749786138534546 9.791741371154785
    vertex -1.3226721286773682 0.9019849896430969 6.697590351104736
  endloop
endfacet
facet normal 0.04852575301991665 -0.9962218902503384 0.07202219574473222
  outer loop
    vertex -1.0980476140975952 0.9586403965950012 8.002530097961426
    vertex -0.9430081844329834 0.7639128565788269 5.2045698165893555
    vertex -0.5447993874549866 0.7535611987113953 4.793086528778076
  endloop
endfacet
facet normal -0.12990245855859683 -0.9813353212487143 -0.14179682129763982
  outer loop
    vertex -0.9943331480026245 0.7245686054229736 5.405561447143555
    vertex -0.7365915775299072 0.8078452348709106 4.593106269836426
    vertex -0.5447993874549866 0.7535611987113953 4.793086528778076
  endloop
endfacet
facet normal 0.286470994729572 0.9238094259544258 0.25398919996016295
  outer loop
    vertex -0.9943331480026245 0.7245686054229736 5.405561447143555
    vertex -0.5447993874549866 0.7535611987113953 4.793086528778076
    vertex -0.9430081844329834 0.7639128565788269 5.2045698165893555
  endloop
endfacet
facet normal 0.2477026212200836 0.9369125193198489 0.24665429771733852
  outer loop
    vertex -0.9943331480026245 0.7245686054229736 5.405561447143555
    vertex -0.9430081844329834 0.7639128565788269 5.2045698165893555
    vertex -1.1389765739440918 0.7903445959091187 5.300970554351807
  endloop
endfacet
facet normal -0.29046505297823383 -0.9381735802346662 -0.18830928375420086
  outer loop
    vertex -0.9943331480026245 0.7245686054229736 5.405561447143555
    vertex -1.1389765739440918 0.7903445959091187 5.300970554351807
    vertex -0.7365915775299072 0.8078452348709106 4.593106269836426
  endloop
endfacet
facet normal -0.9210220233617669 -0.30388562515311685 -0.2436636191717925
  outer loop
    vertex -1.3334592580795288 0.7420079112052917 5.693950176239014
    vertex -1.348149299621582 1.482787847518921 4.825611591339111
    vertex -1.0486232042312622 0.8897870779037476 4.432997703552246
  endloop
endfacet
facet normal -0.17640291897136334 -0.9722298116152748 -0.15378947813459143
  outer loop
    vertex -1.3334592580795288 0.7420079112052917 5.693950176239014
    vertex -1.0486232042312622 0.8897870779037476 4.432997703552246
    vertex -0.7365915775299072 0.8078452348709106 4.593106269836426
  endloop
endfacet
facet normal 0.8672411657431203 0.1377636986181934 0.4784494997212865
  outer loop
    vertex -1.3334592580795288 0.7420079112052917 5.693950176239014
    vertex -0.7365915775299072 0.8078452348709106 4.593106269836426
    vertex -1.0473706722259521 2.568979501724243 4.649329662322998
  endloop
endfacet
facet normal -0.9160438420841155 0.297346266904685 0.2691632904718247
  outer loop
    vertex -1.3334592580795288 0.7420079112052917 5.693950176239014
    vertex -1.0473706722259521 2.568979501724243 4.649329662322998
    vertex -1.348149299621582 1.482787847518921 4.825611591339111
  endloop
endfacet
facet normal 0.858627064252149 0.439866260167065 0.2632056946579536
  outer loop
    vertex -1.0788016319274902 1.4795565605163574 4.586904525756836
    vertex -1.3249460458755493 1.0545653104782104 6.100114822387695
    vertex -0.7365915775299072 0.8078452348709106 4.593106269836426
  endloop
endfacet
facet normal 0.4926182433320127 0.2432548077503817 -0.8355563205690008
  outer loop
    vertex -1.0788016319274902 1.4795565605163574 4.586904525756836
    vertex -0.7365915775299072 0.8078452348709106 4.593106269836426
    vertex -1.0486232042312622 0.8897870779037476 4.432997703552246
  endloop
endfacet
facet normal -0.6536817987499717 0.1595968750359298 -0.7397492436371715
  outer loop
    vertex -1.0788016319274902 1.4795565605163574 4.586904525756836
    vertex -1.0486232042312622 0.8897870779037476 4.432997703552246
    vertex -1.348149299621582 1.482787847518921 4.825611591339111
  endloop
endfacet
facet normal 0.2780408167186096 0.9120641164970016 0.3013840600247341
  outer loop
    vertex -1.0788016319274902 1.4795565605163574 4.586904525756836
    vertex -1.348149299621582 1.482787847518921 4.825611591339111
    vertex -1.3249460458755493 1.0545653104782104 6.100114822387695
  endloop
endfacet
facet normal -0.7489827753705087 0.5944628612404169 0.2926409212740878
  outer loop
    vertex -0.7611343860626221 2.003242254257202 5.616013050079346
    vertex -1.3249460458755493 1.0545653104782104 6.100114822387695
    vertex -0.9176331758499146 1.1220381259918213 7.005525588989258
  endloop
endfacet
facet normal 0.6373168278658846 -0.7509769274261587 0.1728031116401909
  outer loop
    vertex -0.5180891752243042 1.4257572889328003 4.737483978271484
    vertex -1.3249460458755493 1.0545653104782104 6.100114822387695
    vertex -1.296932578086853 0.7892800569534302 4.843907356262207
  endloop
endfacet
facet normal 0.540022022494291 -0.7306625944519608 -0.4177420116410428
  outer loop
    vertex -0.5180891752243042 1.4257572889328003 4.737483978271484
    vertex -1.296932578086853 0.7892800569534302 4.843907356262207
    vertex -1.1833418607711792 1.0469337701797485 4.5400919914245605
  endloop
endfacet
facet normal -0.3304740434521169 0.09083945209903742 0.939433393353012
  outer loop
    vertex -0.5180891752243042 1.4257572889328003 4.737483978271484
    vertex -1.1833418607711792 1.0469337701797485 4.5400919914245605
    vertex -0.5447993874549866 0.7535611987113953 4.793086528778076
  endloop
endfacet
facet normal 0.8951667869642532 0.18337358790370276 0.4062641391698485
  outer loop
    vertex -1.258431077003479 0.7796812057495117 4.7634053230285645
    vertex -1.296932578086853 0.7892800569534302 4.843907356262207
    vertex -2.7618749141693115 -3.9329214096069336 10.203215599060059
  endloop
endfacet
facet normal -0.9115208532729733 -0.15083435309231738 -0.3825947359488012
  outer loop
    vertex -1.258431077003479 0.7796812057495117 4.7634053230285645
    vertex -2.7618749141693115 -3.9329214096069336 10.203215599060059
    vertex -1.7015612125396729 1.84597647190094 5.398773193359375
  endloop
endfacet
facet normal 0.9006631804241194 0.12661965672976955 0.4156600750107534
  outer loop
    vertex -1.258431077003479 0.7796812057495117 4.7634053230285645
    vertex -1.7015612125396729 1.84597647190094 5.398773193359375
    vertex -1.296932578086853 0.7892800569534302 4.843907356262207
  endloop
endfacet
facet normal 0.9547107651482306 -0.01299568827656711 0.2972515214364732
  outer loop
    vertex -2.8995845317840576 -3.750542402267456 9.792817115783691
    vertex -2.8992393016815186 -3.749786138534546 9.791741371154785
    vertex -1.296932578086853 0.7892800569534302 4.843907356262207
  endloop
endfacet
facet normal 0.43950124466657964 0.5864938274241556 0.680340831003029
  outer loop
    vertex -2.8995845317840576 -3.750542402267456 9.792817115783691
    vertex -1.296932578086853 0.7892800569534302 4.843907356262207
    vertex -3.053389310836792 -3.9784488677978516 10.088644027709961
  endloop
endfacet
facet normal -0.6823826513300948 -0.36304323779566144 -0.6344710589574225
  outer loop
    vertex -2.8995845317840576 -3.750542402267456 9.792817115783691
    vertex -3.053389310836792 -3.9784488677978516 10.088644027709961
    vertex -1.1389765739440918 0.7903445959091187 5.300970554351807
  endloop
endfacet
facet normal -0.9629548081296859 0.2221570273491383 -0.15285382788570892
  outer loop
    vertex -2.8995845317840576 -3.750542402267456 9.792817115783691
    vertex -1.1389765739440918 0.7903445959091187 5.300970554351807
    vertex -2.8992393016815186 -3.749786138534546 9.791741371154785
  endloop
endfacet
facet normal -0.6251704026235914 0.6671369693218759 0.4050805251397293
  outer loop
    vertex -1.2834101915359497 0.7858151793479919 4.815696716308594
    vertex -2.8992393016815186 -3.749786138534546 9.791741371154785
    vertex -1.1833418607711792 1.0469337701797485 4.5400919914245605
  endloop
endfacet
facet normal 0.9020547562006579 0.09797975689833163 0.4203536416565404
  outer loop
    vertex -1.2834101915359497 0.7858151793479919 4.815696716308594
    vertex -1.1833418607711792 1.0469337701797485 4.5400919914245605
    vertex -1.296932578086853 0.7892800569534302 4.843907356262207
  endloop
endfacet
facet normal 0.8998989363761789 0.1345223876008866 0.414832052212915
  outer loop
    vertex -1.2834101915359497 0.7858151793479919 4.815696716308594
    vertex -1.296932578086853 0.7892800569534302 4.843907356262207
    vertex -2.8992393016815186 -3.749786138534546 9.791741371154785
  endloop
endfacet
facet normal -0.8319613304795195 0.541770524422001 0.11968727356848721
  outer loop
    vertex -0.7611343860626221 2.003242254257202 5.616013050079346
    vertex -1.3226721286773682 0.9019849896430969 6.697590351104736
    vertex -1.0980476140975952 0.9586403965950012 8.002530097961426
  endloop
endfacet
facet normal -0.8754820931510485 0.4818980406018266 0.036130084915192394
  outer loop
    vertex -0.7611343860626221 2.003242254257202 5.616013050079346
    vertex -1.401661992073059 0.8860920667648315 4.9955339431762695
    vertex -1.3226721286773682 0.9019849896430969 6.697590351104736
  endloop
endfacet
facet normal 0.2434541484138751 -0.9665444711936201 0.08075805114736401
  outer loop
    vertex -1.1874701976776123 0.7374085187911987 5.6243133544921875
    vertex -0.9430081844329834 0.7639128565788269 5.2045698165893555
    vertex -1.0980476140975952 0.9586403965950012 8.002530097961426
  endloop
endfacet
facet normal -0.3442441068598088 -0.9335622090429484 0.09978775846336425
  outer loop
    vertex -1.1874701976776123 0.7374085187911987 5.6243133544921875
    vertex -1.0980476140975952 0.9586403965950012 8.002530097961426
    vertex -1.3226721286773682 0.9019849896430969 6.697590351104736
  endloop
endfacet
facet normal 0.9623967081530169 -0.2228082562809121 0.1553996688197762
  outer loop
    vertex -1.1874701976776123 0.7374085187911987 5.6243133544921875
    vertex -1.3226721286773682 0.9019849896430969 6.697590351104736
    vertex -2.8992393016815186 -3.749786138534546 9.791741371154785
  endloop
endfacet
facet normal 0.9568474424430266 -0.273293000989279 0.098761872706592
  outer loop
    vertex -1.1874701976776123 0.7374085187911987 5.6243133544921875
    vertex -2.8992393016815186 -3.749786138534546 9.791741371154785
    vertex -1.1389765739440918 0.7903445959091187 5.300970554351807
  endloop
endfacet
facet normal -0.22240228939164236 -0.9562795272579763 -0.1899123150841399
  outer loop
    vertex -1.1874701976776123 0.7374085187911987 5.6243133544921875
    vertex -1.1389765739440918 0.7903445959091187 5.300970554351807
    vertex -0.9430081844329834 0.7639128565788269 5.2045698165893555
  endloop
endfacet
facet normal -0.9100626183046399 0.16145251739305078 -0.3817317322308299
  outer loop
    vertex -0.6635269522666931 1.307505488395691 4.630247592926025
    vertex -0.7365915775299072 0.8078452348709106 4.593106269836426
    vertex -1.3249460458755493 1.0545653104782104 6.100114822387695
  endloop
endfacet
facet normal -0.8753288256254055 0.34995397191318106 -0.3336639995136381
  outer loop
    vertex -0.6635269522666931 1.307505488395691 4.630247592926025
    vertex -1.3249460458755493 1.0545653104782104 6.100114822387695
    vertex -0.7611343860626221 2.003242254257202 5.616013050079346
  endloop
endfacet
facet normal 0.9943587276789247 -0.01010091261342496 0.10558736786721279
  outer loop
    vertex -0.6635269522666931 1.307505488395691 4.630247592926025
    vertex -0.7611343860626221 2.003242254257202 5.616013050079346
    vertex -0.9176331758499146 1.1220381259918213 7.005525588989258
  endloop
endfacet
facet normal 0.540978241655693 -0.016601775411292655 -0.8408727151646126
  outer loop
    vertex -0.5716270208358765 0.8224515318870544 4.698948383331299
    vertex -0.7365915775299072 0.8078452348709106 4.593106269836426
    vertex -0.6635269522666931 1.307505488395691 4.630247592926025
  endloop
endfacet
facet normal 0.9722166310792818 0.20115512132756155 0.1197139900619202
  outer loop
    vertex -0.5716270208358765 0.8224515318870544 4.698948383331299
    vertex -0.6635269522666931 1.307505488395691 4.630247592926025
    vertex -0.9176331758499146 1.1220381259918213 7.005525588989258
  endloop
endfacet
facet normal -0.09129121171631169 -0.9891867307628495 0.11478469560910012
  outer loop
    vertex -0.5716270208358765 0.8224515318870544 4.698948383331299
    vertex -0.9176331758499146 1.1220381259918213 7.005525588989258
    vertex -1.3249460458755493 1.0545653104782104 6.100114822387695
  endloop
endfacet
facet normal -0.8680529708580903 0.1079842011225979 -0.4845858562652832
  outer loop
    vertex -0.5716270208358765 0.8224515318870544 4.698948383331299
    vertex -1.3249460458755493 1.0545653104782104 6.100114822387695
    vertex -0.5180891752243042 1.4257572889328003 4.737483978271484
  endloop
endfacet
facet normal 0.9464779685906664 -0.06378122444360534 -0.3164038722597434
  outer loop
    vertex -0.5716270208358765 0.8224515318870544 4.698948383331299
    vertex -0.5180891752243042 1.4257572889328003 4.737483978271484
    vertex -0.5447993874549866 0.7535611987113953 4.793086528778076
  endloop
endfacet
facet normal 0.447922230533632 -0.6558716465262229 -0.6076167037506104
  outer loop
    vertex -0.5716270208358765 0.8224515318870544 4.698948383331299
    vertex -0.5447993874549866 0.7535611987113953 4.793086528778076
    vertex -0.7365915775299072 0.8078452348709106 4.593106269836426
  endloop
endfacet
facet normal -0.3919717367194748 -0.3942122922033353 -0.8312369254844921
  outer loop
    vertex -0.605187714099884 0.8998305201530457 4.752194881439209
    vertex -0.5447993874549866 0.7535611987113953 4.793086528778076
    vertex -1.3483976125717163 1.482886552810669 4.826144218444824
  endloop
endfacet
facet normal 0.2799537680756828 0.23892349426044837 0.929807212077108
  outer loop
    vertex -0.605187714099884 0.8998305201530457 4.752194881439209
    vertex -1.3483976125717163 1.482886552810669 4.826144218444824
    vertex -1.401661992073059 0.8860920667648315 4.9955339431762695
  endloop
endfacet
facet normal -0.24807530342373382 0.5751816705075332 -0.7795028478096702
  outer loop
    vertex -0.605187714099884 0.8998305201530457 4.752194881439209
    vertex -1.401661992073059 0.8860920667648315 4.9955339431762695
    vertex -0.7611343860626221 2.003242254257202 5.616013050079346
  endloop
endfacet
facet normal 0.9885044944484656 0.022684583393279986 0.14948001248145779
  outer loop
    vertex -0.605187714099884 0.8998305201530457 4.752194881439209
    vertex -0.7611343860626221 2.003242254257202 5.616013050079346
    vertex -1.0980476140975952 0.9586403965950012 8.002530097961426
  endloop
endfacet
facet normal 0.9032334054652383 0.4091260740993954 0.12955798216892728
  outer loop
    vertex -0.605187714099884 0.8998305201530457 4.752194881439209
    vertex -1.0980476140975952 0.9586403965950012 8.002530097961426
    vertex -0.5447993874549866 0.7535611987113953 4.793086528778076
  endloop
endfacet
endsolid pointcloud